<svg width="126" height="126" viewBox="0 0 126 126" xmlns="http://www.w3.org/2000/svg">
    <g transform="translate(2 2)" fill="none" fill-rule="evenodd">
        <circle stroke="#FFF" stroke-width="3" cx="61" cy="61" r="61"/>
        <path d="M82.406 59.365c.84.687 1.26 1.566 1.26 2.635 0 1.07-.42 1.948-1.26 2.635L50.552 83.656c-.458.23-.878.344-1.26.344-.611 0-1.146-.23-1.605-.688-.458-.458-.687-.993-.687-1.604V42.292c0-.611.23-1.146.688-1.605.458-.458.993-.687 1.604-.687.458 0 .878.115 1.26.344l31.854 19.02z" fill="#FFF"/>
    </g>
</svg>
